<svg xmlns="http://www.w3.org/2000/svg" width="3108.928" height="971.218" viewBox="0 0 3108.928 971.218">
  <g id="Group_3" data-name="Group 3" transform="translate(-8072.695 4308.858)">
    <path id="Union_2" data-name="Union 2" d="M10.1,745.584C-2.45,736.684-7.552,709,20.41,670.89c26.208-35.717,75.6-80.542,150.669-126.863,10.328-31.04,51.455-152.646,94.318-251.9C314.954,177.381,366.829,92.517,366.829,92.517s28.277-48.429,45.376-30.368c8.482,8.959,13.931,28.695,5.92,37.1-7.745,8.125-29.023,4.845-29.023,4.845S345.668,185.8,302.873,281.3q4.111-4.626,8.66-9.352c28.807-29.878,58.937-67.916,107.019-105C685.677-39.1,715.462,3.683,715.462,3.683s16.331,12.442-19.3,46.543C667.95,81.58,555.235,162.976,500.918,205.293c-12.324,9.721-16.849,15.825-18.184,17.915.369.672,6.959,12.227,26.677,18.5,46.53,14.81,129.972,45.411,167.394,106.721,233.221-61.557,325.22-54.915,325.22-54.915l-7.813,17.511s-77.946.494-190.565,22.883c-36.618,7.279-76.958,17.783-118.959,29.447,18.244,40.619,16.723,93.241-23.728,161.308-6.466,10.88-17.98,23.427-27.317,32.582-21.611,21.19-43.626,41.731-70.062,59.108-35.753,23.5-68.335,46.8-110.209,66.322-98.512,45.922-204.195,79.43-290.606,87.052-15.343,1.353-29.24,1.945-41.845,1.945C50.416,771.672,20.754,753.135,10.1,745.584ZM150.638,575.735C77.986,623.578,41.515,663.157,27.146,684.406c-20.978,31.022-6.736,49.242-6.736,49.242S95.446,780.256,245.8,737.59C424.25,694.352,639.416,572.673,672.719,468.26c9.8-30.728,7.69-69.663-4.225-100.375-35.5,9.989-72,20.612-108.276,30.654-101.558,28.115-208.262,72.8-285.782,106.608a619.214,619.214,0,0,0-71.959,37.438c-3.973,11.969-6.148,18.8-6.148,18.8s2.561,33.6-18,33.6a20.971,20.971,0,0,1-2.623-.171c-13.681-1.73-13.791-16.241-11.523-28Q157.238,571.375,150.638,575.735ZM479.39,149.169c-54.563,41.206-117.953,106.35-163.576,170.168-41.019,57.377-70.557,112.82-85.46,142.879C222.13,485,215.094,505.255,209.59,521.431c68.022-37.99,153.363-76.149,257.385-110.362C540.146,387,604.716,367.829,661.326,352.561a91.875,91.875,0,0,0-10.783-15.5c-27.251-31.286-65.272-44.532-100.906-57.9-10.829-4.061-27.082-10.254-35.9-15.017-52.54-21.216-47.7-32.688-46.862-34.075-1.794-3.686-8.06-24.218,48.221-63.127,39.98-27.639,103.255-75.414,140.526-108.326,45.562-31.178,31.095-34.616,31.095-34.616S606.28,53.34,479.39,149.169Z" transform="translate(8072.695 -4109.314)"/>
    <path id="Subtraction_1" data-name="Subtraction 1" d="M44.912,429.519h0a44.76,44.76,0,0,1-12.779-1.643,17.735,17.735,0,0,1-4.019-1.643,29.959,29.959,0,0,1-7.818-4.342,42.266,42.266,0,0,1-7.122-6.715,49.23,49.23,0,0,1-6.909-10.888C1.284,393.659-.742,380.44.242,365a166.215,166.215,0,0,1,4.984-30.016A288.363,288.363,0,0,1,18.12,296.8c1.213-2.951-.057-5.688-1.285-8.334-1.338-2.885-2.722-5.867-.96-9.175,1.814-3.406,4.852-4.421,8.069-5.494,3.119-1.041,6.345-2.118,8.532-5.525,9.669-15.061,19.558-33.84,30.027-53.722,10.382-19.716,21.118-40.1,33.032-59.661,6.454-10.595,12.574-19.833,18.709-28.241a248.569,248.569,0,0,1,20.6-24.928c35.119-38.624,66.042-66.763,91.91-83.638,10.131-6.609,19.5-11.48,27.836-14.48A53.81,53.81,0,0,1,272.443,0a23.062,23.062,0,0,1,9.29,1.695,9.649,9.649,0,0,1,2.773,1.695l3.945,3.551a7.379,7.379,0,0,1,1.777,1.979,17.786,17.786,0,0,1,2.55,7.363c.7,4.843.2,10.792-1.474,17.68-2.133,8.784-6.19,19.083-12.056,30.612-15.161,29.795-42.257,67.706-80.537,112.68a392.927,392.927,0,0,1-50.8,49.931c-15.873,13-30.276,22.8-42.983,31.452l-.011.007c-4.96,3.376-9.645,6.565-13.941,9.627-18.175,12.955-32.885,22.273-43.721,27.7-8.681,4.344-12.517,4.993-14.03,4.993a2.162,2.162,0,0,1-.75-.087c-.044.114-4.87,12.738-9.261,28.411a245.284,245.284,0,0,0-5.827,25.435c-1.588,9.517-2.1,17.579-1.513,23.962a59.816,59.816,0,0,0,3.675,16.615,30.379,30.379,0,0,0,5.587,9.271c3.781,4.146,7.305,4.894,7.34,4.9a8.725,8.725,0,0,0,3,3,16.684,16.684,0,0,0,4.717,2.064,29.129,29.129,0,0,0,7.713.938A64.035,64.035,0,0,0,64.7,412.825a157.906,157.906,0,0,0,25.432-9.919c11.281-5.412,25.6-13.223,42.562-23.215,13.57-7.994,28.848-17.394,45.412-27.938,28.126-17.9,50.655-33.2,50.879-33.356l-5.554,20.5-.008.006c-1.362.858-34.127,21.474-100.767,62.165-17.219,10.514-33.26,18.238-47.678,22.958C63.837,427.671,53.723,429.519,44.912,429.519Zm219.226-406.1a12.169,12.169,0,0,0-1.585.113,33.472,33.472,0,0,0-8.785,2.82c-7.177,3.21-16.506,8.984-26.978,16.7-23.973,17.659-52,43.851-78.923,73.75-14.145,15.709-27.88,32.286-40.824,49.27-8.227,10.795-14.568,21.389-20.7,31.635-2.7,4.507-5.245,8.764-7.919,12.989-3.869,6.113-7.628,12.727-11.172,19.656-3.515,6.871-6.073,12.6-7.6,16.2a19.865,19.865,0,0,1-3.78,5.415c-1.309,1.471-2.439,2.741-2.663,4.124-.44,2.717-.182,4.528.767,5.383a3.022,3.022,0,0,0,2.065.609,12.5,12.5,0,0,0,3.612-.677,58.613,58.613,0,0,0,11.154-5.358c8.951-5.24,20.739-13.688,34.087-24.431,13.716-11.04,28.776-24.267,43.55-38.251,16.148-15.283,31.518-31.01,45.685-46.743,14.041-15.593,26.693-30.988,37.6-45.755a356.935,356.935,0,0,0,24.446-37.26c5.771-10.33,9.815-19.451,11.694-26.376a28.125,28.125,0,0,0,1.2-8.3c-.1-2.1-.649-3.623-1.645-4.521A4.8,4.8,0,0,0,264.138,23.421Z" transform="translate(9047.392 -4109.54)"/>
    <path id="Subtraction_2" data-name="Subtraction 2" d="M41.3,111.2h0a19.738,19.738,0,0,1-9.053-2.1,20.636,20.636,0,0,1-8.9-9.119,36.074,36.074,0,0,1-3.721-14.4,61.7,61.7,0,0,1,1.584-17.743,82.872,82.872,0,0,1,7.019-19.141c1.789-3.511,2.377-7.686,2.945-11.724.742-5.272,1.443-10.251,4.665-13.468a33.6,33.6,0,0,1,13.032-7.864,46.464,46.464,0,0,1,14.887-2.418,42.9,42.9,0,0,1,8.619.841,28.136,28.136,0,0,1,7.08,2.375,20.635,20.635,0,0,1,8.9,9.119,36.073,36.073,0,0,1,3.72,14.4A61.707,61.707,0,0,1,90.49,57.694a82.876,82.876,0,0,1-7.019,19.141A84.481,84.481,0,0,1,74.4,91.02a68.872,68.872,0,0,1-10.652,10.832,47.621,47.621,0,0,1-11.333,6.914A28.869,28.869,0,0,1,41.3,111.2Zm27.61-67.536h0c-3.8,0-10.283,6.207-15.42,14.756A48.854,48.854,0,0,0,47.6,72.2c-.91,4.081-.528,6.858,1.075,7.821a2.669,2.669,0,0,0,1.4.361c3.8,0,10.284-6.207,15.421-14.756a48.845,48.845,0,0,0,5.89-13.784c.909-4.081.528-6.858-1.075-7.821a2.668,2.668,0,0,0-1.395-.361Z" transform="translate(9248.369 -3848.508)"/>
    <path id="Subtraction_5" data-name="Subtraction 5" d="M41.3,111.2h0a19.738,19.738,0,0,1-9.053-2.1,20.636,20.636,0,0,1-8.9-9.119,36.074,36.074,0,0,1-3.721-14.4,61.7,61.7,0,0,1,1.584-17.743,82.872,82.872,0,0,1,7.019-19.141c1.789-3.511,2.377-7.686,2.945-11.724.742-5.272,1.443-10.251,4.665-13.468a33.6,33.6,0,0,1,13.032-7.864,46.464,46.464,0,0,1,14.887-2.418,42.9,42.9,0,0,1,8.619.841,28.136,28.136,0,0,1,7.08,2.375,20.635,20.635,0,0,1,8.9,9.119,36.073,36.073,0,0,1,3.72,14.4A61.707,61.707,0,0,1,90.49,57.694a82.876,82.876,0,0,1-7.019,19.141A84.481,84.481,0,0,1,74.4,91.02a68.872,68.872,0,0,1-10.652,10.832,47.621,47.621,0,0,1-11.333,6.914A28.869,28.869,0,0,1,41.3,111.2Zm27.61-67.536h0c-3.8,0-10.283,6.207-15.42,14.756A48.854,48.854,0,0,0,47.6,72.2c-.91,4.081-.528,6.858,1.075,7.821a2.669,2.669,0,0,0,1.4.361c3.8,0,10.284-6.207,15.421-14.756a48.845,48.845,0,0,0,5.89-13.784c.909-4.081.528-6.858-1.075-7.821a2.668,2.668,0,0,0-1.395-.361Z" transform="translate(10305.369 -3846.508)"/>
    <path id="Union_3" data-name="Union 3" d="M53.292,351.7s-40.044-19.341-6.278-80.029c13.878-24.943,63.13-81.348,113.147-124.505,15.1-13.026,30.008-25.614,44.322-37.162,3.231-27.3,3.057-49.44,1.265-62.909-.686-5.153-2.523-7.309-4.509-8.022-1.84,2.5-4.032,5.223-6.623,8.242-5.5,6.41-12.989,14.357-23.575,25.01-10.991,11.062-21.412,19.358-30.974,24.658-8.477,4.7-16.332,7.082-23.346,7.083h0a26.3,26.3,0,0,1-12.238-2.866,26.631,26.631,0,0,1-8.719-7.355c-2.742-3.51-3.9-8.088-3.45-13.605.438-5.329,2.357-11.307,5.7-17.766q1.5-2.9,3.337-5.835c-11.854,2.3-26.546,4.4-40.753,4.4C29.1,61.036,0,50.727,0,50.727V31.556s30.539,10.1,62.039,10.1c24.215,0,49-5.969,59.167-8.73q5.171-4.878,10.975-9.415a134.6,134.6,0,0,1,28.785-17.6,79.507,79.507,0,0,1,12.959-4.43A49.423,49.423,0,0,1,185.41,0a28.22,28.22,0,0,1,10.817,1.945,20.258,20.258,0,0,1,3.305,1.732C208,7.41,228.114,24.193,218.554,98.846c7.819-6.082,15.405-11.77,22.685-16.957,37-26.364,65-41.522,65-41.522s25.483-7.854,29.3,1.8-18.761,10.7-18.761,10.7-41.235,15.954-100.147,59.249q-2.082,12.969-5.3,28.043c-7.808,36.37-20.529,80.264-38.739,118.082-14.478,30.07-33.378,56.4-48.708,72.2-19.7,20.3-38.278,25.089-51.426,25.088C60.708,355.526,53.292,351.7,53.292,351.7Zm56.552-144.163C.452,324.467,62.093,341.168,62.093,341.168S108.385,366.49,164.6,248.341a450.607,450.607,0,0,0,38.2-125.8A786.893,786.893,0,0,0,109.844,207.535ZM163.41,33.574a95.121,95.121,0,0,0-20.834,12.369,81.452,81.452,0,0,0-18.966,20.6c-3.755,6.106-5.224,11.276-3.742,13.172a2.983,2.983,0,0,0,2.479.9c5.99,0,20.084-7.743,34.275-18.83a142.8,142.8,0,0,0,20.755-19.375A36.944,36.944,0,0,0,182.469,35c1-2.11,1.147-3.638.44-4.542-.571-.73-1.846-1.116-3.689-1.116C175.453,29.344,169.691,30.886,163.41,33.574Z" transform="translate(9334 -3851.555)"/>
    <path id="Subtraction_4" data-name="Subtraction 4" d="M11.775,874.757c-1.489,0-4.363-.495-6.889-3.812a22.565,22.565,0,0,1-3.678-8.856A70.036,70.036,0,0,1,.066,845.16c.572-16.612,4.887-39.616,12.823-68.374,6.615-23.969,13.669-47.656,20.965-70.4,5.838-18.2,11.843-35.842,17.848-52.435C61.879,625.83,68.7,610.075,68.765,609.919l-.012,0a90.366,90.366,0,0,1-14.007-6.392,49.129,49.129,0,0,1-10.127-7.388c-3.208-3.164-5.1-6.409-5.631-9.643s.093-7.838,1.848-13.68a131.038,131.038,0,0,1,6.328-16.267c4.766-10.44,9.865-19.223,9.916-19.31a27.638,27.638,0,0,1,3.342-3.907,17.829,17.829,0,0,1,3.479-2.686,8.265,8.265,0,0,1,4.063-1.221,6.088,6.088,0,0,1,3.988,1.541,8.275,8.275,0,0,1,2.857,5.111,14.53,14.53,0,0,1-.317,5.682,26.44,26.44,0,0,1-2.539,6.514c-.034.055-3.427,5.607-6.777,12.449a101.116,101.116,0,0,0-4.659,10.911,31.792,31.792,0,0,0-2.118,9.9,12.142,12.142,0,0,0,2.118,6.95,16.217,16.217,0,0,0,4.659,4.416,24.579,24.579,0,0,0,6.777,3l.045-.114c1.637-4.056,16.57-41,36.384-88.445,19.342-46.32,47.58-112.8,72.261-166.446,10.9-23.691,22.013-46.864,33.032-68.873,8.816-17.608,17.594-34.521,26.09-50.268,14.526-26.923,23.2-41.114,23.29-41.254a80.989,80.989,0,0,1,9.554-12.264,50.681,50.681,0,0,1,10.158-8.431,23.569,23.569,0,0,1,12.16-3.832c4.768,0,9.292,1.949,13.445,5.792a27.019,27.019,0,0,1,6.657,9.338,21.808,21.808,0,0,1,1.755,9.706,16.6,16.6,0,0,1-1.7,6.51,13.378,13.378,0,0,1-4.124,4.888,17.033,17.033,0,0,1-6.532,2.661,36.353,36.353,0,0,1-7.35.678,56.121,56.121,0,0,1-9.644-.857L148.271,467.41l-24.551,68.519c12.532-29.5,24.6-55.873,36.882-80.634,7.086-14.281,14.368-28.255,21.646-41.534,7.851-14.323,15.969-28.338,24.131-41.655a723.918,723.918,0,0,1,40.972-60c14.761-19.448,30.5-38.2,48.12-57.328,13.724-14.9,26.327-28.114,38.527-40.4,14.895-15,28.91-28.337,42.846-40.785,15.764-14.081,31.324-26.869,46.248-38.012a462.594,462.594,0,0,1,48.734-32.079c14.513-8.2,28.6-15.364,41.864-21.3A335.647,335.647,0,0,1,549.8,68.355a227.363,227.363,0,0,1,30.932-7.512,162.665,162.665,0,0,1,26.322-2.261,120.677,120.677,0,0,1,45.241,8.4C664.328,71.745,674,77.717,683.674,83.931a73.916,73.916,0,0,1,18.174,16.4,76.345,76.345,0,0,1,11.1,19.577c4.742,12.159,7,26.314,6.707,42.072a164.258,164.258,0,0,1-1.524,19.189c-.717,5.234-1.681,10.534-2.864,15.753a146.65,146.65,0,0,1-4.012,14.587,184.89,184.89,0,0,1-8.312,20.142c-3.468,7.392-7.454,15.071-11.846,22.823-5.49,9.69-11.636,19.524-18.268,29.231a499.844,499.844,0,0,1-59.687,71.406,579.966,579.966,0,0,1-43.361,39.035,643.2,643.2,0,0,1-53.668,39.163c-18.8,12.306-39.727,24.829-62.185,37.222-20.417,11.266-42.561,22.677-65.817,33.916-39.169,18.929-82.177,37.727-127.829,55.872-40.619,16.144-75.852,28.77-98.256,36.52-24.376,8.432-39.143,13.037-39.285,13.081l-.043.134c-1.475,4.554-14.85,45.812-29.955,91.434-26.734,80.746-38.73,114.355-44.086,128.331A160.014,160.014,0,0,1,37.018,854.5a66.285,66.285,0,0,1-10.26,13.479,27.3,27.3,0,0,1-7.993,5.629,12.374,12.374,0,0,1-4.84,1.132,4.77,4.77,0,0,1-1.036-.089A5.213,5.213,0,0,1,11.775,874.757ZM600.287,76.377c-3.094,0-6.245.106-9.368.315a156.567,156.567,0,0,0-18.3,2.349A186.109,186.109,0,0,0,553.8,83.632a251.917,251.917,0,0,0-39.2,15.68,390.353,390.353,0,0,0-41.345,23.961c-13.871,9.134-28.52,19.824-43.54,31.773-14.558,11.581-29.963,24.742-45.788,39.117-15.256,13.858-31.437,29.33-48.092,45.986a615.373,615.373,0,0,0-46.4,52.3c-13.775,17.345-27.451,36.28-40.649,56.28a1042.165,1042.165,0,0,0-63.63,111.555c-18.185,36.766-31.451,68.494-39.377,88.637-9.2,23.378-13.658,37.215-14.242,39.61a2.265,2.265,0,0,0,.388.027,7.353,7.353,0,0,0,.862-.061,31.133,31.133,0,0,0,3.395-.667c2.864-.692,6.825-1.858,11.774-3.465,10.287-3.339,24.291-8.405,40.5-14.649,17.685-6.813,37.7-14.924,57.871-23.457,23.006-9.73,46.23-19.99,69.027-30.5C341.029,503.93,365.916,491.9,389.321,480c26.121-13.282,50.581-26.494,72.7-39.271,51.356-29.665,90.628-57.238,116.727-81.954a687.469,687.469,0,0,0,50.808-53.28A460.748,460.748,0,0,0,668.3,253.385c10.8-17.126,19.147-33.623,24.814-49.033,5.818-15.82,8.86-30.639,9.043-44.045a86.171,86.171,0,0,0-1.083-15.1,72.6,72.6,0,0,0-3.739-13.994,67.612,67.612,0,0,0-6.494-12.8,71.266,71.266,0,0,0-9.36-11.507,91.422,91.422,0,0,0-22.3-16.054,129.289,129.289,0,0,0-16.346-7.192,123.508,123.508,0,0,0-16.816-4.719,126.264,126.264,0,0,0-17.3-2.3C605.957,76.466,603.122,76.377,600.287,76.377Z" transform="translate(9704.488 -4367.44)"/>
    <path id="Path_15" data-name="Path 15" d="M0,0S-3.228-4.86,13.662-2.029s33.378,13.353,53.9,13.353C96.061,11.324,114,0,114,0V27s-28.407,3.265-56.907,3.265c-12.825,0-24.989-5.145-35.65-6.39A41.075,41.075,0,0,0,0,27Z" transform="translate(10390 -3822)"/>
    <path id="Subtraction_6" data-name="Subtraction 6" d="M23.31,199.415h0a15.765,15.765,0,0,1-6.013-1.184A17.94,17.94,0,0,1,8.963,191.6,21.2,21.2,0,0,1,5.7,181.858a39.51,39.51,0,0,1,.7-11.464A65.3,65.3,0,0,1,9.961,158.6,110.237,110.237,0,0,1,21.54,137.535c3.7-5.367,6.6-8.74,6.632-8.773l-.015-.025c-.719-1.259-4.524-7.96-8.8-16.315S9.512,92.387,7.214,84.209A218.2,218.2,0,0,1,1.084,57.591,90.759,90.759,0,0,1,0,43.685,50.039,50.039,0,0,1,1.64,30.768a62.317,62.317,0,0,1,3.886-10.24,54.826,54.826,0,0,1,6.12-9.973A32.388,32.388,0,0,1,19.725,3a18.215,18.215,0,0,1,9.761-3A20.279,20.279,0,0,1,40.68,3.729a19.376,19.376,0,0,1,7.973,12.852c.869,4.843.062,9.549-2.159,12.59a15.4,15.4,0,0,0-6.743-1.708,12.178,12.178,0,0,0-6.378,1.824A17.682,17.682,0,0,0,28.881,33.3a25.042,25.042,0,0,0-3.533,5.838,97.21,97.21,0,0,0-.355,10.924A96.815,96.815,0,0,0,28.172,73.63a106.375,106.375,0,0,0,9.776,22.791c3.368,6.042,6.215,10.107,6.244,10.147.2-.2,22.879-22.367,44.2-44.583a49.764,49.764,0,0,1,15.5-11.34,31.637,31.637,0,0,1,12.824-2.825,27.3,27.3,0,0,1,8.556,1.354,17.563,17.563,0,0,1,3.162,1.354L116.749,68.492a3.408,3.408,0,0,0-.391-1.426,2.829,2.829,0,0,0-2.7-1.427c-3.029,0-7.861,2.689-14.359,7.991-4.965,4.051-14.337,12.308-30.787,28.637-9.881,9.809-17.648,17.9-17.725,17.98a146.253,146.253,0,0,1,2.431,17.591,131.014,131.014,0,0,1,.3,16.906,80.557,80.557,0,0,1-2.735,17.8,44.022,44.022,0,0,1-11.009,18.984C34.647,196.613,28.8,199.415,23.31,199.415Zm8.185-52.66c-1.478,0-3.635,2.125-5.768,5.685a47.092,47.092,0,0,0-5.189,13.083c-1.177,5.1-1.9,9.119-1.626,12.169a7.744,7.744,0,0,0,1.229,3.791,6.464,6.464,0,0,0,3.128,2.335,5.766,5.766,0,0,0,2.067.416c2.086,0,3.864-1.359,5.435-4.155a42.266,42.266,0,0,0,3.7-10.829,42.535,42.535,0,0,0,.669-14.807c-.607-4.386-1.879-7.318-3.321-7.651A1.435,1.435,0,0,0,31.495,146.755Z" transform="translate(10495.306 -3866.098)"/>
    <path id="Subtraction_7" data-name="Subtraction 7" d="M23.31,199.415h0a15.766,15.766,0,0,1-6.013-1.184A17.94,17.94,0,0,1,8.963,191.6,21.2,21.2,0,0,1,5.7,181.858a39.509,39.509,0,0,1,.7-11.464A65.293,65.293,0,0,1,9.961,158.6,110.239,110.239,0,0,1,21.54,137.535c3.7-5.368,6.6-8.74,6.632-8.773l-.016-.026c-.72-1.259-4.526-7.965-8.8-16.314S9.512,92.387,7.214,84.209A218.207,218.207,0,0,1,1.084,57.591,90.755,90.755,0,0,1,0,43.685,50.04,50.04,0,0,1,1.64,30.768a62.315,62.315,0,0,1,3.886-10.24,54.828,54.828,0,0,1,6.12-9.973A32.389,32.389,0,0,1,19.725,3a18.215,18.215,0,0,1,9.761-3A20.279,20.279,0,0,1,40.68,3.729a19.376,19.376,0,0,1,7.973,12.852c.869,4.843.062,9.549-2.159,12.59a15.4,15.4,0,0,0-6.743-1.708,12.178,12.178,0,0,0-6.378,1.824A17.683,17.683,0,0,0,28.881,33.3a25.042,25.042,0,0,0-3.533,5.838,97.644,97.644,0,0,0-.355,10.924A96.813,96.813,0,0,0,28.172,73.63a106.373,106.373,0,0,0,9.776,22.791c3.378,6.059,6.215,10.107,6.244,10.147.2-.2,22.905-22.395,44.2-44.583a49.764,49.764,0,0,1,15.5-11.34,31.637,31.637,0,0,1,12.824-2.825,27.3,27.3,0,0,1,8.556,1.354,17.564,17.564,0,0,1,3.162,1.354,30.024,30.024,0,0,1,2.981,4.723,21.34,21.34,0,0,1,1.755,4.6,11.043,11.043,0,0,1,.179,4.933,8.506,8.506,0,0,1-4.916,5.82,16.624,16.624,0,0,1-7.029,2.112,4.281,4.281,0,0,1-4.042-2.111,5.038,5.038,0,0,1-.618-2.111,3.368,3.368,0,0,0-.391-1.426,2.829,2.829,0,0,0-2.7-1.427c-3.029,0-7.861,2.689-14.359,7.991-4.966,4.052-14.338,12.309-30.787,28.637-9.83,9.758-17.647,17.9-17.725,17.98a146.253,146.253,0,0,1,2.431,17.591,131.006,131.006,0,0,1,.3,16.906,80.557,80.557,0,0,1-2.735,17.8,44.022,44.022,0,0,1-11.009,18.984C34.647,196.613,28.8,199.415,23.31,199.415Zm8.185-52.66c-1.479,0-3.635,2.125-5.768,5.685a47.094,47.094,0,0,0-5.188,13.083c-1.177,5.1-1.9,9.119-1.626,12.169a7.744,7.744,0,0,0,1.229,3.791,6.464,6.464,0,0,0,3.128,2.335,5.766,5.766,0,0,0,2.067.416c2.086,0,3.864-1.359,5.435-4.155a42.266,42.266,0,0,0,3.7-10.829,42.535,42.535,0,0,0,.669-14.807c-.607-4.386-1.879-7.318-3.321-7.651A1.435,1.435,0,0,0,31.495,146.755Z" transform="translate(10875.306 -3866.098)"/>
    <path id="Union_4" data-name="Union 4" d="M58.987,469.246s-78.346-3.106,43.1-251.568c55.97-98.653,70.231-119.535,70.231-119.535s-80.584,8.185-117.45,9.532-34.654,0-34.654,0-31.544-9.535-15.823-32.5,32.389,4.952,32.389,4.952l147.011-4.952,59.624-64.184s26.1-22.552,36.211-3.054c4.126,7.956,11.171,24.188,1.9,31.266-6.551,6.411-22.713-2.842-22.713-2.842s-12.285,10.92-33.511,36.575c19.892-1.684,44.2-3.911,65.5-6.319,31.449-3.555,69.135-9.983,110.44-13.119,35.8-2.452,72.892-8.356,104.891-10.2,55.813-3.209,98.125-1.472,105.53,0,11.623,2.31,13.507,10.12,7.974,15.661s-21.429,4.252-21.429,4.252S626.2,49.633,525.64,57.03c-62.449,4.594-182.051,20.478-256.4,28.562-27.668,3.009-48.585,6.275-60.678,8.362-13.5,17.561-29.318,39.574-46.939,66.611-8.415,15.585-16.542,27.662-26.784,45.76C110.022,250.179,80.444,311.714,64.558,367c-22.343,77.754,4.185,84.549,4.185,84.549s30.856,11.3,115.049-42.88S321.186,302.082,321.186,302.082l4.753,19.523s-20.969,35.339-130.927,103.2c-65.047,40.145-100.739,48.345-119.042,48.346C63.332,473.154,58.987,469.246,58.987,469.246Z" transform="translate(10558.995 -4121.515)"/>
  </g>
</svg>
